<svg width="100%" height="auto" version="1.1" viewBox="0 0 99.97953 27.04516" xmlns="http://www.w3.org/2000/svg"><g transform="translate(2.5884e-6 -269.95)"><g transform="matrix(1.9344 0 0 1.9344 -242.62 90.936)" fill="#6cdc00"><rect x="155.57" y="95.909" width="6.5527" height="6.5526" ry=".55863"/><rect x="163" y="95.909" width="6.5527" height="6.5526" ry=".55863"/><rect x="170.42" y="95.909" width="6.5527" height="6.5526" ry=".55863"/><rect x="148.14" y="95.909" width="6.5527" height="6.5526" ry=".55863"/><path d="m154.72 103.14c-0.1771 0-0.35826 7e-3 -0.38948 0.0218-0.0238 0.0115-0.0967 0.0347-0.16202 0.0519-0.0653 0.017-0.12704 0.0375-0.13708 0.0452-0.0106 7e-3 -0.045 0.02-0.0776 0.0269-0.0327 7e-3 -0.0594 0.0202-0.0594 0.0295 0 0.01-8e-3 0.0166-0.0188 0.0166-0.0229 0-0.25107 0.14215-0.29991 0.18689-0.0195 0.0178-0.0415 0.0325-0.0491 0.0325-0.0178 0-0.21704 0.1991-0.21704 0.21695 0 7e-3 -0.0144 0.0295-0.0321 0.0491-0.0738 0.0814-0.21334 0.33921-0.23369 0.43197-7e-3 0.0326-0.0195 0.0717-0.0277 0.0872-0.0363 0.0689-0.0757 0.38179-0.0669 0.5308 0.0106 0.17585 0.0476 0.42011 0.0683 0.44751 7e-3 0.01 0.0195 0.0448 0.0264 0.0772 7e-3 0.0325 0.0325 0.0982 0.0568 0.14614 0.0243 0.048 0.0443 0.0975 0.0443 0.11003 6e-5 0.0126 7e-3 0.0229 0.0162 0.0229 8e-3 0 0.0209 0.0142 0.0269 0.032 0.0106 0.0312 0.0483 0.0961 0.0667 0.11418 5e-3 5e-3 0.0375 0.0462 0.072 0.0914s0.11472 0.12744 0.17839 0.18271c0.0636 0.0552 0.12738 0.1108 0.14153 0.12339 0.0142 0.0124 0.034 0.0228 0.0441 0.0228 0.0106 0 0.0291 0.0108 0.0424 0.0238 0.0298 0.0295 0.23609 0.12869 0.33474 0.16098 0.0402 0.0131 0.0814 0.0297 0.0915 0.0369 0.0106 7e-3 0.0719 0.019 0.1371 0.0259 0.0652 7e-3 0.1309 0.02 0.14596 0.0288 0.0689 0.0398 0.84061-0.0149 0.84061-0.0596 0-8e-3 0.0154-0.0156 0.0344-0.0156s0.0581-0.0124 0.0869-0.0273 0.0668-0.0275 0.0844-0.0275c0.0176-1e-4 0.032-8e-3 0.032-0.0184 0-0.0106 0.01-0.0184 0.0209-0.0184 0.0235 0 0.24855-0.13889 0.28629-0.17661 0.0135-0.0135 0.0303-0.0244 0.0374-0.0244 0.0186 0 0.22201-0.20106 0.22201-0.21945 0-8e-3 0.0106-0.0263 0.0228-0.0396 0.0478-0.0505 0.11668-0.15495 0.15131-0.22945 0.0198-0.0426 0.0415-0.0777 0.0482-0.0777 6e-3 -1e-4 0.0179-0.0266 0.0252-0.0589 7e-3 -0.0324 0.0195-0.0715 0.0277-0.0869 0.0291-0.0549 0.0719-0.20898 0.0719-0.25863 0-0.0278 8e-3 -0.0555 0.0182-0.0618 0.0245-0.0151 0.0245-0.62446 0-0.63962-0.0106-6e-3 -0.0184-0.0334-0.0188-0.0605 0-0.0448-0.0331-0.14972-0.0879-0.28334-0.0117-0.0282-0.0211-0.059-0.0211-0.0685 0-0.01-8e-3 -0.0168-0.0182-0.0168-0.0106 0-0.0182-0.0124-0.0182-0.0274 0-0.0149-8e-3 -0.0274-0.0178-0.0274-0.01 0-0.0231-0.0205-0.0295-0.0457-6e-3 -0.0251-0.017-0.0457-0.0238-0.0457-6e-3 0-0.0263-0.0238-0.0434-0.0528-0.0514-0.087-0.34003-0.36752-0.37807-0.36752-0.01 0-0.0238-0.0106-0.0318-0.0229-0.0443-0.0691-0.50665-0.26945-0.62207-0.26945-0.0188 0-0.0442-0.0106-0.0565-0.0226-0.0152-0.015-0.18813-0.0229-0.36523-0.0234zm9.687 0.01c-0.11368 0-0.22441 6e-3 -0.22441 0.0184 0 0.0106-0.0254 0.0182-0.0565 0.0182-0.055 0-0.22583 0.0413-0.29971 0.0725-0.10782 0.0455-0.29323 0.13949-0.29851 0.15144-3e-3 7e-3 -0.0178 0.0135-0.032 0.0135s-0.0258 7e-3 -0.0258 0.0166c0 0.01-0.0168 0.0224-0.0374 0.0289-0.0485 0.0152-0.37647 0.3433-0.39189 0.3919-6e-3 0.0205-0.0195 0.0373-0.0289 0.0373-0.01 0-0.017 0.0119-0.017 0.0259s-6e-3 0.0285-0.0138 0.0321c-0.0121 5e-3 -0.11067 0.20016-0.15093 0.29838-0.0273 0.0665-0.0587 0.19981-0.0668 0.28325-4e-3 0.0452-0.0165 0.0994-0.0267 0.12026-0.0208 0.0421-0.0113 0.30625 0.0168 0.46457 0.032 0.18031 0.0657 0.31073 0.0806 0.31073 7e-3 0 0.0146 0.0136 0.0146 0.0308 0 0.0398 0.11108 0.2615 0.13103 0.2615 8e-3 0 0.0151 0.0106 0.0156 0.0229 2e-3 0.0495 0.20477 0.26654 0.35585 0.37946 0.0603 0.045 0.11242 0.0882 0.11579 0.0958 3e-3 7e-3 0.017 0.0135 0.0306 0.0135 0.0135 0 0.0355 0.0108 0.0487 0.0238 0.031 0.0307 0.24007 0.13032 0.33485 0.15962 0.0402 0.0124 0.0898 0.0303 0.11035 0.0394 0.0205 0.01 0.12333 0.0237 0.22846 0.0322 0.10512 8e-3 0.23219 0.0122 0.28245 8e-3 0.25924-0.0195 0.35637-0.0321 0.35637-0.0465 0-8e-3 0.0242-0.0156 0.0538-0.0156 0.0295 0 0.0582-7e-3 0.0637-0.0156 5e-3 -9e-3 0.0472-0.0218 0.0925-0.0287l0.0824-0.0122v-0.46842c0-0.37714-4e-3 -0.46304-0.0228-0.44095-0.0332 0.0398-0.15419 0.12573-0.17697 0.12573-0.0107 0-0.0195 7e-3 -0.0195 0.0172 0 0.01-0.0184 0.0223-0.0411 0.0288-0.0226 6e-3 -0.0781 0.0295-0.12333 0.051-0.0709 0.0337-0.11552 0.0396-0.32346 0.0396-0.16924 0-0.24805-6e-3 -0.26409-0.0223-0.0124-0.0126-0.0417-0.0228-0.0648-0.0228s-0.042-7e-3 -0.042-0.0165c0-8e-3 -0.0246-0.0223-0.0548-0.029-0.0302-6e-3 -0.0548-0.0178-0.0548-0.0249 0-7e-3 -0.0266-0.0287-0.0594-0.0479-0.0326-0.0192-0.0677-0.0435-0.0779-0.0542-0.0484-0.0504-0.13679-0.17273-0.13679-0.1894 0-0.0106-6e-3 -0.0216-0.0137-0.0247-0.0234-0.0106-0.0776-0.14216-0.0776-0.18847 0-0.0242-8e-3 -0.0491-0.0182-0.0552-0.0241-0.0151-0.0241-0.42375 0-0.43868 0.0106-6e-3 0.0182-0.0305 0.0182-0.0538 0-0.0963 0.11712-0.29449 0.24631-0.41679 0.0885-0.0838 0.24986-0.17804 0.30467-0.17804 0.0146 0 0.0352-8e-3 0.0461-0.0195 0.0243-0.0243 0.48181-0.0268 0.49749-3e-3 6e-3 0.01 0.0416 0.0225 0.0789 0.0293 0.10714 0.0198 0.24023 0.10109 0.32958 0.20142l0.0502 0.0564v-0.47062c4e-5 -0.32975-6e-3 -0.47056-0.0201-0.47056-0.011 0-0.0461-0.0113-0.0777-0.0247-0.0767-0.0328-0.22307-0.0705-0.31336-0.0805-0.0402-4e-3 -0.0809-0.0154-0.0905-0.0244-0.0122-0.0117-0.1289-0.0165-0.24259-0.016zm-5.9591 0c-0.10969 0-0.22059 4e-3 -0.23258 0.016-0.01 8e-3 -0.0502 0.0202-0.0905 0.025-0.10491 0.0124-0.265 0.0563-0.265 0.0725 0 7e-3 -0.011 0.0138-0.0248 0.0138-0.0301 0-0.25589 0.11313-0.26451 0.13248-3e-3 7e-3 -0.0136 0.0135-0.023 0.0135-0.0539 0-0.42539 0.33711-0.4472 0.40583-5e-3 0.0181-0.0162 0.0328-0.0234 0.0328-7e-3 0-0.0291 0.0309-0.0488 0.0686-0.0198 0.0377-0.0404 0.0724-0.0458 0.0776-5e-3 5e-3 -0.0259 0.0461-0.0455 0.0913-0.0195 0.0452-0.0409 0.0862-0.0475 0.0914-6e-3 5e-3 -0.018 0.0376-0.0256 0.0724-7e-3 0.0348-0.0202 0.076-0.028 0.0914-0.0373 0.073-0.0633 0.26821-0.0633 0.47578 0 0.2105 0.0331 0.47707 0.0648 0.52086 7e-3 0.0106 0.0193 0.0467 0.0268 0.0816 0.0124 0.0581 0.0412 0.12427 0.0638 0.14686 5e-3 5e-3 0.0296 0.0483 0.0547 0.0964s0.0684 0.11383 0.0963 0.14619c0.0279 0.0324 0.0678 0.0836 0.0888 0.11365 0.0209 0.0302 0.0764 0.0836 0.12306 0.11873 0.0467 0.0352 0.089 0.0687 0.094 0.0748 0.0184 0.0223 0.23064 0.15685 0.30153 0.19137 0.0403 0.0195 0.0773 0.0395 0.0823 0.0447 5e-3 5e-3 0.0584 0.0246 0.11871 0.0433 0.0603 0.0188 0.12728 0.0421 0.14871 0.052 0.0215 0.01 0.1201 0.0242 0.21926 0.0316 0.0992 7e-3 0.18916 0.0147 0.2 0.016 0.0502 7e-3 0.4208-0.0389 0.43618-0.0537 0.01-9e-3 0.0399-0.0165 0.0674-0.0165s0.0549-7e-3 0.0608-0.0172c6e-3 -0.01 0.0475-0.0226 0.0925-0.0294l0.0818-0.0124v-0.93164l-0.0686 0.0573c-0.11061 0.0926-0.2034 0.1475-0.24946 0.1475-0.016 0-0.0292 6e-3 -0.0292 0.014 0 7e-3 -0.0391 0.0263-0.0869 0.0411-0.10876 0.0338-0.52376 0.0361-0.55664 3e-3 -0.0121-0.0121-0.0365-0.0218-0.0546-0.0218s-0.0329-8e-3 -0.0329-0.0184c0-0.0106-0.0144-0.0182-0.032-0.0182-0.0613-1.6e-4 -0.29691-0.18383-0.29691-0.23148 0-0.0133-7e-3 -0.0243-0.017-0.0243s-0.0481-0.0637-0.0862-0.14161c-0.0673-0.13761-0.0695-0.14821-0.0762-0.37532-7e-3 -0.23325 8e-3 -0.331 0.0747-0.46982 0.061-0.12806 0.24265-0.32441 0.34011-0.36751 0.0313-0.0138 0.057-0.0311 0.057-0.0382 0-7e-3 0.0308-0.0186 0.0686-0.0253 0.0377-7e-3 0.0782-0.02 0.0901-0.0294 0.0286-0.0226 0.45832-0.0226 0.48646 0 0.0121 0.01 0.0501 0.0237 0.0845 0.031 0.0895 0.0192 0.21846 0.0948 0.30053 0.17639 0.0389 0.0387 0.0738 0.0703 0.0776 0.0703 4e-3 0 7e-3 -0.20579 7e-3 -0.45722v-0.45733l-0.0503-0.02c-0.10247-0.0411-0.12576-0.0487-0.23723-0.0775-0.0626-0.0158-0.13827-0.0295-0.16796-0.0295-0.0297 0-0.0591-8e-3 -0.0653-0.0182-7e-3 -0.0115-0.11544-0.0178-0.22511-0.0182zm9.3529 0.0909v0.60024c0 0.56006-2e-3 0.60229-0.0338 0.63071-0.0303 0.0273-0.0948 0.0298-0.63497 0.0257l-0.60135-4e-3 -4e-3 -0.62593-5e-3 -0.62592h-0.78529v3.1978h0.78579v-1.334h0.61478c0.56404 0 0.61665 3e-3 0.63892 0.032 0.0192 0.0252 0.0244 0.16787 0.0249 0.66695v0.63506h0.76753v-3.198h-0.3837zm3.0486 1.2e-4c-0.0664-2e-3 -0.15719 1e-4 -0.28318 1e-4 -0.38304 0-0.44458 4e-3 -0.44458 0.0275 0 0.0151-8e-3 0.0273-0.0182 0.0273-0.0106 0-0.0182 0.0174-0.0182 0.0384 0 0.0211-0.0115 0.0643-0.0253 0.0959-0.0138 0.0318-0.0396 0.0987-0.0572 0.14903-0.0176 0.0502-0.0391 0.0991-0.0479 0.10869-8e-3 0.01-0.0158 0.0289-0.0158 0.043 0 0.0242-0.038 0.1212-0.0748 0.19065-0.01 0.0174-0.0168 0.041-0.0168 0.0521 0 0.0198-0.041 0.12187-0.0745 0.18555-0.01 0.0174-0.0168 0.0409-0.0168 0.052 0 0.0113-0.0113 0.0462-0.025 0.0778s-0.0392 0.0946-0.0566 0.13981c-0.0174 0.0452-0.0392 0.0965-0.0481 0.11396-0.01 0.0174-0.0165 0.0409-0.0165 0.0521 0 0.0113-0.0122 0.0483-0.0274 0.0825l-0.0548 0.12425c-0.0151 0.0342-0.0275 0.0737-0.0275 0.0878 0 0.0138-7e-3 0.0335-0.0152 0.043-8e-3 0.01-0.0297 0.0584-0.0475 0.1086-0.0176 0.0502-0.0437 0.1173-0.0579 0.149-0.014 0.0316-0.0256 0.0702-0.0256 0.0857 0 0.0152-8e-3 0.0332-0.0181 0.0394-0.0106 6e-3 -0.0184 0.0273-0.0184 0.0467 0 0.0195-7e-3 0.0356-0.0162 0.0356-8e-3 0-0.0213 0.0274-0.0276 0.061-6e-3 0.0336-0.028 0.0955-0.0482 0.1372-0.0202 0.0418-0.0416 0.10056-0.0477 0.13074-6e-3 0.03-0.0172 0.0547-0.0246 0.0547-7e-3 0-0.0186 0.0246-0.0246 0.0547s-0.0275 0.0889-0.0478 0.13069c-0.0202 0.0418-0.0418 0.10374-0.0482 0.13746-6e-3 0.0338-0.0188 0.0657-0.0277 0.0713-8e-3 5e-3 -0.0162 0.026-0.0162 0.0456 0 0.0195-8e-3 0.0355-0.0184 0.0355-0.0106 0-0.0184 0.0142-0.0184 0.032-3e-5 0.0176-0.0122 0.0555-0.0274 0.0843-0.015 0.0288-0.0274 0.0559-0.0274 0.0594 0 4e-3 0.18756 7e-3 0.41673 7e-3 0.42275 0 0.46044-5e-3 0.46044-0.0693 0-0.0138 0.0124-0.0535 0.0275-0.0877l0.0548-0.12425c0.0151-0.0342 0.0274-0.0737 0.0274-0.0878 0-0.0142 7e-3 -0.0335 0.0162-0.043 9e-3 -0.01 0.0259-0.0481 0.038-0.0858l0.0219-0.0685h0.59379c0.62541 0 0.64597 3e-3 0.64597 0.0828 0 0.0282 0.0356 0.12152 0.0746 0.19559 0.01 0.0174 0.0168 0.041 0.0168 0.0521 0 0.0188 0.0298 0.0931 0.078 0.19482 0.0193 0.0411 0.022 0.0411 0.43669 0.0411 0.22949 0 0.41725-4e-3 0.41725-0.01 0-5e-3 -0.0158-0.0428-0.0353-0.083-0.0194-0.0401-0.041-0.0994-0.0478-0.13164-7e-3 -0.0323-0.0186-0.0669-0.0261-0.0769-7e-3 -0.0106-0.028-0.0594-0.0458-0.10962-0.0178-0.0502-0.0474-0.12545-0.0657-0.16704-0.0184-0.0416-0.0392-0.0985-0.0462-0.12667-7e-3 -0.028-0.0239-0.0721-0.0374-0.0979s-0.0244-0.0653-0.0245-0.088c-6e-5 -0.0226-8e-3 -0.0411-0.0184-0.0411-0.0106 0-0.0182-0.0117-0.0182-0.0254 0-0.0138-0.0122-0.0488-0.0274-0.0776-0.0151-0.0288-0.0273-0.0709-0.0273-0.0934-7e-5 -0.0226-7e-3 -0.0411-0.0163-0.0411-8e-3 0-0.0205-0.0184-0.0257-0.0411-0.01-0.0419-0.0384-0.12554-0.0773-0.22391-0.0119-0.0302-0.0321-0.0836-0.0448-0.11874-0.0126-0.0351-0.0344-0.0898-0.0483-0.1215-0.0138-0.0316-0.0254-0.0668-0.0254-0.0779 0-0.0113-7e-3 -0.0346-0.0168-0.0521-0.0335-0.0636-0.0746-0.16562-0.0746-0.18545 0-0.011-7e-3 -0.0347-0.0164-0.0521-0.01-0.0174-0.0304-0.0687-0.0476-0.11396-0.0172-0.0452-0.0385-0.0965-0.0476-0.11398-0.01-0.0174-0.0164-0.0408-0.0164-0.0519 0-0.0194-0.0401-0.11961-0.0734-0.1835-8e-3 -0.016-0.021-0.0596-0.0278-0.096-6e-3 -0.0364-0.0197-0.0663-0.0287-0.0663-8e-3 0-0.0162-0.02-0.0162-0.0445s-7e-3 -0.0494-0.0168-0.0551c-0.01-5e-3 -0.0227-0.0367-0.0297-0.069-7e-3 -0.0322-0.0192-0.0712-0.027-0.0866-7e-3 -0.0152-0.0282-0.065-0.0456-0.11018-0.0527-0.13767-0.0322-0.16138-0.23126-0.16457zm-22.656 1e-4v3.198h0.63112c0.62235 0 1.065-0.0285 1.1457-0.0737 0.0174-0.01 0.0417-0.0178 0.0538-0.0178 0.0561 0 0.26935-0.12798 0.35231-0.21138 0.15222-0.153 0.23452-0.36478 0.23452-0.60178-1.2e-4 -0.10119-0.041-0.34347-0.0615-0.36453-0.01-0.01-0.017-0.0322-0.017-0.0503 0-0.0182-7e-3 -0.0329-0.017-0.0329s-0.0224-0.0166-0.029-0.0378c-0.0154-0.0484-0.12723-0.15211-0.20977-0.19442-0.0352-0.0179-0.0667-0.039-0.0701-0.0466-3e-3 -7e-3 -0.0255-0.0135-0.0492-0.0135s-0.0482-9e-3 -0.0544-0.0184c-6e-3 -0.0106-0.0396-0.0182-0.0742-0.0182-0.0487 0-0.0628-7e-3 -0.0628-0.0335 0-0.0184 0.0205-0.0445 0.0456-0.0579 0.0543-0.0291 0.19202-0.17247 0.19202-0.19997 0-0.0108 8e-3 -0.0194 0.0179-0.0194 0.01 0 0.0234-0.033 0.0297-0.0735 6e-3 -0.0403 0.019-0.0779 0.0277-0.0832 0.0212-0.0131 0.0205-0.47777 0-0.49094-0.01-5e-3 -0.0224-0.0442-0.0294-0.0854-0.0138-0.0821-0.032-0.10988-0.15495-0.23688-0.10406-0.10753-0.23624-0.18068-0.35061-0.19423-0.0491-5e-3 -0.0934-0.0176-0.0987-0.0262-5e-3 -8e-3 -0.33408-0.0154-0.73048-0.0154zm2.9055 0v3.1975h1.7908v-0.67555l-0.50716-5e-3 -0.50707-4e-3 -4e-3 -1.2563-4e-3 -1.2564h-0.3836zm8.6801 0v3.198h0.76753v-0.68382c0-0.37604 4e-3 -0.69634 0.0107-0.71178 8e-3 -0.0228 0.0174-0.024 0.0458-6e-3 0.0192 0.0121 0.0349 0.0285 0.0349 0.0365 0 7e-3 0.0205 0.0338 0.0457 0.0571s0.0458 0.0485 0.0458 0.0562c0 0.0129 0.0427 0.0672 0.15587 0.19893 0.0248 0.0289 0.0451 0.0639 0.0451 0.0776 0 0.0138 7e-3 0.0252 0.0176 0.0252 0.01 0 0.0524 0.0473 0.0948 0.10512 0.0425 0.0578 0.0838 0.10815 0.092 0.11124 8e-3 3e-3 0.0149 0.0172 0.0149 0.0309 0 0.0135 0.011 0.0316 0.0245 0.0396 0.0135 7e-3 0.0402 0.0392 0.0595 0.0691 0.0192 0.0299 0.0471 0.0676 0.0622 0.0836 0.0407 0.043 0.13615 0.16608 0.14335 0.18475 3e-3 9e-3 0.0343 0.046 0.0686 0.0823s0.0623 0.0716 0.0623 0.0785c0 7e-3 0.0246 0.04 0.0548 0.0738 0.0301 0.0338 0.0548 0.0683 0.0548 0.0765 0 8e-3 0.23017 0.0151 0.51159 0.0151 0.28143 0 0.51174-7e-3 0.51174-0.0158 0-8e-3 -0.0124-0.0263-0.0275-0.0389s-0.0274-0.0295-0.0274-0.0378c0-8e-3 -0.0288-0.0432-0.064-0.0773-0.0351-0.0342-0.0639-0.0678-0.0639-0.0746 0-7e-3 -0.0329-0.0467-0.073-0.0887-0.0402-0.0418-0.0731-0.083-0.0731-0.0916 0-8e-3 -0.0186-0.0336-0.0412-0.0556-0.0342-0.0334-0.14705-0.16731-0.22352-0.26502-0.0106-0.0129-0.0352-0.0418-0.0552-0.064-0.0202-0.0221-0.0653-0.0772-0.10046-0.12233-0.0351-0.0452-0.0778-0.0987-0.0948-0.11883-0.0642-0.0761-0.0984-0.11773-0.14273-0.17367-0.0252-0.0318-0.0688-0.0839-0.097-0.11577-0.0283-0.0318-0.065-0.0784-0.0818-0.10343-0.0168-0.0252-0.0409-0.0521-0.0534-0.0601-0.0341-0.0215-0.13334-0.17105-0.13334-0.20096 0-0.0142 0.037-0.0641 0.0823-0.11067 0.0452-0.0465 0.0823-0.09 0.0823-0.0967 0-6e-3 0.0349-0.0506 0.0776-0.0976 0.0853-0.0938 0.20174-0.23014 0.28145-0.32947 0.0282-0.0351 0.0659-0.0773 0.0837-0.0935 0.0178-0.0158 0.0323-0.0382 0.0323-0.049s0.0186-0.0343 0.0413-0.0527 0.0698-0.0703 0.10469-0.11552c0.0349-0.0452 0.0842-0.10417 0.10953-0.13092 0.0253-0.0269 0.083-0.0957 0.12831-0.15284 0.0452-0.0573 0.10278-0.12621 0.12791-0.15334 0.11235-0.12133 0.14977-0.11113-0.40894-0.11113-0.39383 0-0.50476 5e-3 -0.50476 0.0229 0 0.0129-0.0206 0.0452-0.0458 0.0724-0.0252 0.0271-0.0457 0.0546-0.0457 0.0613 0 6e-3 -0.0251 0.0419-0.0555 0.0786-0.0628 0.0752-0.0554 0.0656-0.16443 0.21247-0.0447 0.0603-0.0857 0.11356-0.0911 0.11876-5e-3 5e-3 -0.0382 0.0462-0.073 0.0914s-0.0697 0.0847-0.0772 0.0885c-7e-3 3e-3 -0.0138 0.0147-0.0138 0.0251 0 0.0176-0.0583 0.0941-0.14638 0.19215-0.0201 0.0222-0.0363 0.0455-0.0363 0.052 0 6e-3 -0.0184 0.0343-0.0411 0.0619-0.0226 0.0275-0.0658 0.0815-0.096 0.12019-0.10533 0.13493-0.11293 0.14232-0.13407 0.12923-0.0154-0.01-0.0212-0.19073-0.0212-0.66991v-0.65675h-0.38381zm12.755 0v3.198h0.78578v-3.198h-0.39289zm1.4071 0v3.198h0.78579v-0.99595c0-0.79611 4e-3 -0.99597 0.0234-0.99597 0.0255 0 0.058 0.0343 0.11223 0.11832 0.0397 0.0616 0.0493 0.0737 0.12245 0.15565 0.0289 0.0324 0.0526 0.0644 0.0526 0.0712 0 6e-3 0.0226 0.0377 0.0502 0.0689s0.079 0.0949 0.11419 0.14145c0.0351 0.0465 0.0865 0.11118 0.11397 0.14373 0.0275 0.0325 0.0501 0.0693 0.0501 0.082 1.6e-4 0.0126 8e-3 0.0228 0.0177 0.0228 0.01 0 0.0647 0.0636 0.12217 0.14142 0.0575 0.0778 0.11954 0.15747 0.13778 0.17709 0.0182 0.0195 0.0332 0.041 0.0332 0.0477 0 6e-3 0.0184 0.0329 0.0411 0.0581 0.046 0.0515 0.068 0.0786 0.15941 0.19701 0.0349 0.0451 0.0678 0.0862 0.0732 0.0914 5e-3 5e-3 0.0466 0.0584 0.0917 0.11877 0.0796 0.10619 0.0928 0.12301 0.14163 0.18131 0.0124 0.0151 0.0228 0.0322 0.0228 0.038 0 5e-3 0.0206 0.0298 0.0458 0.0531 0.0252 0.0234 0.0457 0.0517 0.0457 0.0631 0 0.0147 0.11429 0.0206 0.4021 0.0206h0.40197v-3.198h-0.76752v0.97657c0 0.72155-5e-3 0.98001-0.0212 0.98964-0.0192 0.0121-0.0777-0.0424-0.16153-0.14961-0.05-0.064-0.15475-0.19908-0.1687-0.21768-7e-3 -0.01-0.0431-0.0552-0.0789-0.10035-0.0997-0.12569-0.10427-0.13148-0.17253-0.21937-0.035-0.0452-0.0698-0.0904-0.077-0.10045-7e-3 -0.01-0.0381-0.0483-0.0687-0.0847-0.0305-0.0366-0.0555-0.0718-0.0555-0.0785 0-6e-3 -0.0207-0.0328-0.0461-0.0582s-0.0602-0.0682-0.0776-0.095c-0.037-0.0573-0.0676-0.0965-0.13669-0.1743-0.0276-0.0311-0.0502-0.0624-0.0502-0.0694s-0.0106-0.0238-0.0231-0.0371c-0.0126-0.0133-0.0518-0.0612-0.0869-0.10634-0.0935-0.12069-0.11321-0.14493-0.16868-0.20739-0.0276-0.0311-0.0502-0.0618-0.0502-0.0682 0-6e-3 -0.0184-0.0318-0.0411-0.0564-0.0226-0.0247-0.0576-0.067-0.0775-0.0941l-0.0362-0.0491h-0.39774zm-24.962 0.60301h0.18172c0.0999 0 0.18637 7e-3 0.1921 0.0166 5e-3 0.01 0.0339 0.022 0.0624 0.0283 0.10643 0.0234 0.17896 0.16915 0.16073 0.32311-0.0152 0.12779-0.0602 0.19225-0.17081 0.24461-0.0792 0.0374-0.12259 0.0449-0.26054 0.0449h-0.16568v-0.32931zm5.7003 0.0584c0.0205 0 0.042 0 0.0652 2e-3 0.18581 0.01 0.28327 0.0272 0.28327 0.0511 0 8e-3 0.0178 0.016 0.0395 0.016 0.0218 0 0.0808 0.0264 0.13112 0.0587 0.175 0.1123 0.34548 0.31285 0.41603 0.48942 0.0333 0.0833 0.0349 0.51873 2e-3 0.55163-0.0122 0.0124-0.0223 0.0371-0.0223 0.0551 0 0.10481-0.25839 0.4299-0.39814 0.50096-0.0373 0.019-0.0719 0.0387-0.077 0.0439-0.0246 0.0256-0.12998 0.0605-0.22845 0.0756-0.0603 0.01-0.13426 0.0213-0.16445 0.0268-0.0302 5e-3 -0.0602 4e-3 -0.0666-2e-3 -6e-3 -6e-3 -0.0679-0.0198-0.13659-0.0294-0.0687-0.01-0.1329-0.0257-0.14265-0.0354-0.01-0.01-0.0326-0.0178-0.0507-0.0178-0.0182 0-0.0329-8e-3 -0.0329-0.0182 0-0.0106-0.0106-0.0184-0.0234-0.0184-0.0442 0-0.24208-0.17596-0.32981-0.29332-0.18254-0.24408-0.21446-0.70995-0.0664-0.96836 0.0819-0.14284 0.26235-0.32048 0.383-0.37687 0.18851-0.0881 0.27586-0.11367 0.41904-0.11214zm15.888 0.30708c0.0299 0 0.062 0.0564 0.0768 0.13501 7e-3 0.0365 0.0198 0.0709 0.0287 0.0763 8e-3 5e-3 0.0162 0.0296 0.0162 0.0536 0 0.0239 7e-3 0.048 0.0163 0.0535 8e-3 5e-3 0.022 0.041 0.0291 0.0788 7e-3 0.0379 0.019 0.0769 0.0264 0.087 7e-3 0.01 0.0279 0.0676 0.0454 0.12791 0.0174 0.0603 0.0384 0.12609 0.0467 0.14619 0.0255 0.0623 0.0697 0.19858 0.0813 0.25126l0.0112 0.0502h-0.7529l0.0126-0.0594c7e-3 -0.0326 0.0193-0.0676 0.0273-0.0776 7e-3 -0.0106 0.0203-0.0493 0.0274-0.0871 7e-3 -0.0378 0.0201-0.0732 0.029-0.0787 8e-3 -5e-3 0.0163-0.0303 0.0163-0.0547 0-0.0245 7e-3 -0.0445 0.0162-0.0445 8e-3 0 0.0217-0.0367 0.0285-0.0818 6e-3 -0.045 0.0201-0.0867 0.0295-0.0925 0.01-5e-3 0.0172-0.0308 0.0172-0.0553s7e-3 -0.0446 0.016-0.0446c8e-3 0 0.0212-0.0332 0.0278-0.0739 6e-3 -0.0407 0.0192-0.0879 0.028-0.10502 8e-3 -0.0172 0.0301-0.0702 0.0469-0.11798 0.0168-0.0478 0.0401-0.0869 0.052-0.0869zm-21.588 0.89169 0.30458 6e-3c0.22268 4e-3 0.30667 0.0126 0.31223 0.0293 4e-3 0.0126 0.018 0.0228 0.0309 0.0228 0.0128 0 0.0512 0.0284 0.0852 0.0631 0.18751 0.19176 0.0843 0.509-0.18705 0.5748-0.0539 0.0131-0.19871 0.028-0.32184 0.0335l-0.2239 0.01v-0.37001z"/><path d="m137.45 92.543c-0.22661 0-0.45313 0.01835-0.47355 0.05484-0.0152 0.02709-0.063 0.04917-0.10632 0.04917-0.0486 0-0.0786 0.01856-0.0786 0.04828 0 0.02651-0.0145 0.0481-0.0321 0.0481-0.0591 0-0.41782 0.38488-0.41782 0.44835 0 0.03446-0.023 0.07558-0.0513 0.09141-0.0762 0.04263-0.0762 0.87964 0 0.95581 0.0283 0.02828 0.0513 0.07916 0.0513 0.11324 0 0.03409 0.0113 0.06194 0.0252 0.06194s0.0511 0.04377 0.0827 0.09727c0.0786 0.13307 0.17883 0.22831 0.31967 0.30369 0.0653 0.03495 0.11874 0.07473 0.11874 0.08839 0 0.01365 0.0428 0.02484 0.0951 0.02484s0.11372 0.02103 0.13649 0.04685c0.0586 0.06644 0.59432 0.06658 0.68211 1.81e-4 0.0343-0.02594 0.0957-0.04704 0.1365-0.04704s0.0742-0.01425 0.0742-0.03159 0.0362-0.04057 0.0804-0.05166c0.0442-0.0111 0.0802-0.03306 0.0802-0.04881s0.0218-0.02857 0.0483-0.02857 0.0481-0.02177 0.0481-0.04828 0.0218-0.0481 0.0483-0.0481 0.0481-0.01649 0.0481-0.03657c0-0.02006 0.0346-0.06835 0.0767-0.10738 0.0421-0.03903 0.0864-0.10212 0.0985-0.14022 0.0121-0.03811 0.0355-0.0694 0.052-0.0694s0.03-0.0334 0.03-0.07419c0-0.04081 0.0211-0.1022 0.047-0.13649 0.0673-0.08896 0.0681-0.61045 1e-3 -0.6775-0.0265-0.02651-0.0481-0.08894-0.0481-0.1388 0-0.05094-0.0212-0.09876-0.0483-0.10916-0.0265-0.0102-0.0482-0.04432-0.0483-0.0758-3e-5 -0.03148-0.0578-0.11154-0.1285-0.17803-0.0707-0.06649-0.12851-0.13519-0.12851-0.15265 0-0.01746-0.027-0.03178-0.0602-0.03178s-0.0784-0.02159-0.10045-0.0481c-0.022-0.02651-0.0664-0.04828-0.0987-0.04828s-0.0711-0.02208-0.0863-0.04917c-0.0204-0.0365-0.24713-0.05485-0.47374-0.05485zm-10.699 0.20146c-1.1111 0-1.3333 0.0073-1.3333 0.0442 0 0.02434 0.0216 0.06231 0.0481 0.08431s0.0483 0.08722 0.0483 0.14501c0 0.06377 0.0189 0.11231 0.0481 0.12354 0.0265 0.0102 0.0483 0.05354 0.0483 0.09638s0.0216 0.08621 0.0481 0.09638c0.0265 0.0102 0.0488 0.05162 0.0493 0.09194 6.9e-4 0.04032 0.0222 0.10131 0.0481 0.13561 0.0259 0.0343 0.0472 0.09569 0.0472 0.1365 0 0.04081 0.0134 0.0742 0.0296 0.0742 0.0163 0 0.0391 0.04337 0.0508 0.09638 0.0116 0.05302 0.0325 0.09638 0.0465 0.09638s0.0349 0.05782 0.0462 0.12851c0.0113 0.07069 0.0347 0.12868 0.0522 0.12868 0.0174 0 0.0318 0.03656 0.0318 0.08129 0 0.04472 0.0218 0.08959 0.0483 0.09975 0.0265 0.01019 0.0481 0.05425 0.0481 0.0978 0 0.04356 0.0218 0.10076 0.0483 0.12726 0.0265 0.02651 0.0481 0.08894 0.0481 0.1388 0 0.05094 0.0212 0.09876 0.0483 0.10916 0.0265 0.01019 0.0481 0.04086 0.0481 0.06815 0 0.02731 0.0136 0.07474 0.0302 0.10543 0.0829 0.15375 0.13046 0.28203 0.13046 0.35091 0 0.04202 0.0218 0.08478 0.0483 0.09497 0.0265 0.0102 0.0483 0.05128 0.0483 0.09141 0 0.04012 0.0216 0.09089 0.0481 0.11289 0.0265 0.022 0.0483 0.08208 0.0483 0.13348 0 0.05344 0.0205 0.10144 0.0481 0.112 0.0265 0.01019 0.0483 0.05128 0.0483 0.09141s0.0216 0.09107 0.0481 0.11307 0.0483 0.07425 0.0483 0.11626c0 0.04202 0.0138 0.0765 0.0307 0.0765s0.0402 0.05067 0.0518 0.11271c0.0116 0.06205 0.0339 0.12078 0.0495 0.13046 0.0157 0.0096 0.0286 0.05141 0.0286 0.09266s0.0216 0.08337 0.0481 0.09354c0.0275 0.01054 0.0483 0.05839 0.0483 0.11182 0 0.05141 0.0216 0.11147 0.0481 0.13348 0.0265 0.022 0.0483 0.07443 0.0483 0.11644 0 0.04202 0.0141 0.07632 0.0314 0.07632s0.0413 0.0398 0.0531 0.08838c0.0118 0.04859 0.0411 0.1169 0.065 0.15176 0.0239 0.03486 0.0433 0.08695 0.0433 0.11572 0 0.02879 0.0362 0.12032 0.0804 0.20341 0.0442 0.08308 0.0802 0.17738 0.0802 0.20962 0 0.03224 0.0218 0.07669 0.0483 0.09869s0.0481 0.08008 0.0481 0.12904c0 0.04948 0.0215 0.0971 0.0483 0.10738 0.0265 0.0102 0.0481 0.04893 0.0481 0.08608 0 0.03716 0.0218 0.08939 0.0483 0.1159 0.0265 0.02651 0.0481 0.08433 0.0481 0.12851 0 0.04418 0.0218 0.102 0.0483 0.12851 0.0265 0.02651 0.0481 0.07596 0.0481 0.11004 0 0.03408 0.0145 0.06194 0.0321 0.06194 0.0177 0 0.0321 0.02625 0.0321 0.05822s0.0213 0.08622 0.0472 0.12052c0.0259 0.0343 0.0477 0.10776 0.0483 0.1633 6.9e-4 0.05938 0.0208 0.10858 0.0492 0.11945 0.0265 0.0102 0.0483 0.05354 0.0483 0.09638s0.0216 0.08621 0.0481 0.09638c0.0265 0.0102 0.0486 0.05144 0.0492 0.09176 6.9e-4 0.04032 0.0223 0.10148 0.0483 0.13578 0.0259 0.0343 0.0472 0.0896 0.0472 0.12283 0 0.03323 0.0216 0.08194 0.0481 0.10844 0.0265 0.0265 0.0483 0.0761 0.0483 0.11023 0 0.0341 0.0126 0.0619 0.028 0.0619s0.0371 0.0578 0.0484 0.12851c0.0113 0.0707 0.0349 0.12851 0.0524 0.12851 0.0174 0 0.0318 0.0434 0.0318 0.0964 0 0.0643 0.016 0.0964 0.0481 0.0964 0.0303 0 0.0483 0.0307 0.0483 0.0827 0 0.0455 0.0216 0.1043 0.0481 0.13082 0.0265 0.0265 0.0483 0.0889 0.0483 0.1388 0 0.0509 0.021 0.0988 0.0481 0.10916 0.0265 0.0102 0.0483 0.0552 0.0483 0.0999s0.0138 0.0813 0.0307 0.0813 0.0402 0.0507 0.0518 0.11271c0.0117 0.062 0.034 0.12077 0.0497 0.13046 0.0156 0.01 0.0284 0.0534 0.0284 0.0971s0.0218 0.0878 0.0483 0.098 0.0481 0.0513 0.0481 0.0914 0.0218 0.0909 0.0483 0.11289c0.0265 0.022 0.0481 0.0821 0.0481 0.13347 0 0.0534 0.0207 0.10144 0.0483 0.11201 0.0265 0.0102 0.0481 0.0484 0.0481 0.0848 0 0.0365 0.024 0.0926 0.0533 0.12496 0.0491 0.0543 0.12224 0.0589 0.95883 0.0589h0.90558l0.0499-0.10454c0.0274-0.0574 0.0672-0.14774 0.0884-0.20075 0.0212-0.053 0.0589-0.13741 0.0838-0.18744 0.0249-0.05 0.0453-0.11192 0.0453-0.13755 0-0.0256 0.0216-0.0548 0.0481-0.065 0.0271-0.0104 0.0483-0.0582 0.0483-0.10916 0-0.0499 0.0216-0.11247 0.0481-0.13898 0.0265-0.0265 0.0483-0.0837 0.0483-0.12727 0-0.0436 0.0216-0.0876 0.0481-0.0978s0.0483-0.055 0.0483-0.0997 0.0145-0.0813 0.0321-0.0813c0.0177 0 0.0322-0.0253 0.0323-0.0563 1.1e-4 -0.0309 0.0195-0.0933 0.0431-0.13863 0.0237-0.0453 0.0529-0.12138 0.0648-0.1688 0.0119-0.0474 0.0357-0.0863 0.0531-0.0863 0.0173 0 0.0316-0.0366 0.0316-0.0813s0.0216-0.0896 0.0481-0.0997c0.0271-0.0104 0.0483-0.0582 0.0483-0.10916 0-0.0499 0.0216-0.11229 0.0481-0.13881 0.0265-0.0265 0.0483-0.0787 0.0483-0.1159s0.0218-0.0757 0.0483-0.0859c0.0275-0.0105 0.0481-0.05848 0.0481-0.11148 0-0.05112 0.0145-0.09301 0.0321-0.09301 0.0177 0 0.0326-0.02534 0.0332-0.05627 6.9e-4 -0.03093 0.0291-0.11409 0.0632-0.18477 0.0342-0.07069 0.0626-0.14653 0.0632-0.16862 6.9e-4 -0.02208 0.0155-0.04011 0.0332-0.04011s0.0321-0.03674 0.0321-0.08147c0-0.04472 0.0218-0.08958 0.0483-0.09975 0.0268-0.01031 0.0481-0.05807 0.0481-0.10756 0-0.04896 0.0218-0.10704 0.0483-0.12904 0.0265-0.022 0.0481-0.07476 0.0481-0.11732 0-0.04257 0.0218-0.08568 0.0483-0.09584 0.0265-0.0102 0.0481-0.05229 0.0481-0.09354s0.0145-0.08387 0.0321-0.09479c0.0177-0.01088 0.0323-0.04432 0.0323-0.07419 7e-5 -0.02988 0.0433-0.14122 0.0962-0.24725 0.0529-0.10604 0.0963-0.21644 0.0964-0.24548 6e-5 -0.02903 0.0218-0.06117 0.0483-0.07135 0.0275-0.01053 0.0483-0.05839 0.0483-0.11182 0-0.05141 0.0216-0.11148 0.0481-0.13348 0.0265-0.022 0.0483-0.07295 0.0483-0.11306 0-0.04013 0.0216-0.08124 0.0481-0.09141 0.0265-0.0102 0.0483-0.05429 0.0483-0.09797 0-0.04369 0.0127-0.08723 0.0284-0.09692 0.0157-0.0096 0.038-0.06841 0.0497-0.13046 0.0116-0.06205 0.035-0.11289 0.0518-0.11289 0.0169 0 0.0307-0.02787 0.0307-0.06194 0-0.03408 0.0216-0.08354 0.0481-0.11004 0.0265-0.02651 0.0483-0.07649 0.0483-0.11094 0-0.03444 0.0216-0.08059 0.0481-0.10259 0.0265-0.022 0.0483-0.08206 0.0483-0.13348 0-0.05344 0.0205-0.10144 0.0481-0.11199 0.0265-0.01019 0.0483-0.05129 0.0483-0.09141 0-0.04013 0.0218-0.09089 0.0483-0.11289 0.0265-0.022 0.0481-0.06739 0.0481-0.10082 0-0.03342 0.0123-0.08593 0.0273-0.11662 0.0671-0.13663 0.13046-0.2863 0.14927-0.35286 0.0112-0.03975 0.0339-0.07242 0.0504-0.07242s0.03-0.035 0.03-0.07793c0-0.04291 0.0218-0.09969 0.0483-0.1262 0.0265-0.02651 0.0481-0.08588 0.0481-0.13188 0-0.04599 0.0218-0.09189 0.0483-0.10206 0.0265-0.0102 0.0481-0.04484 0.0481-0.07685 0-0.03202 0.0204-0.09907 0.0453-0.1491 0.0249-0.05003 0.0623-0.13442 0.0832-0.18744 0.0209-0.05302 0.0585-0.13723 0.0834-0.18726 0.0249-0.05003 0.0451-0.11193 0.0451-0.13756 0-0.02563 0.0218-0.05497 0.0483-0.06514 0.0271-0.01042 0.0483-0.05822 0.0483-0.10916 0-0.04986 0.0216-0.1123 0.0481-0.1388 0.0265-0.02651 0.0483-0.07649 0.0483-0.11094 0-0.03444 0.0216-0.08059 0.0481-0.10259 0.0265-0.022 0.0483-0.07425 0.0483-0.11626 0-0.04201 0.0145-0.0765 0.0321-0.0765 0.0177 0 0.0322-0.02534 0.0323-0.05627 9e-5 -0.03093 0.0195-0.09327 0.0431-0.13862 0.0237-0.04535 0.0529-0.1212 0.0648-0.16862 0.0119-0.04742 0.0357-0.08627 0.0531-0.08627 0.0173 0 0.0316-0.03656 0.0316-0.08128s0.0216-0.08976 0.0481-0.09993c0.0265-0.01019 0.0483-0.05551 0.0483-0.10081 0-0.04531 0.0238-0.10879 0.0531-0.14111 0.0514-0.05684 9e-3 -0.05875-1.2851-0.05875h-1.3385v0.08023c0 0.04418-0.0145 0.08041-0.0321 0.08041-0.0177 0-0.0321 0.02787-0.0321 0.06194 0 0.03408-0.0216 0.08372-0.0481 0.11023-0.0265 0.02651-0.0483 0.08433-0.0483 0.12851 0 0.04418-0.0216 0.102-0.0481 0.12851-0.0265 0.02651-0.0483 0.08372-0.0483 0.12726 0 0.04355-0.0216 0.08764-0.0481 0.0978-0.0275 0.01054-0.0483 0.05839-0.0483 0.11182 0 0.05141-0.0216 0.11147-0.0481 0.13348-0.0265 0.022-0.0488 0.07085-0.0493 0.10845-6.9e-4 0.0376-0.0222 0.09634-0.0481 0.13064-0.0259 0.0343-0.0472 0.09497-0.0472 0.13472 0 0.03975-0.0133 0.08044-0.0297 0.09053-0.0163 0.01008-0.0392 0.06167-0.0508 0.11448-0.0116 0.0528-0.0343 0.09602-0.0506 0.09602s-0.0297 0.04232-0.0297 0.09407-0.0218 0.11567-0.0483 0.14217c-0.0265 0.02651-0.0481 0.07874-0.0481 0.1159 0 0.03716-0.0218 0.07591-0.0483 0.08609-0.0298 0.01146-0.0481 0.06035-0.0481 0.12851 0 0.06816-0.0184 0.11705-0.0483 0.12851-0.0275 0.01053-0.0481 0.05849-0.0481 0.11147 0 0.05113-0.0143 0.09284-0.0318 0.09284-0.0174 0-0.0411 0.05782-0.0524 0.12851-0.0113 0.07069-0.0332 0.12851-0.0486 0.12851s-0.0279 0.02804-0.0279 0.06213c0 0.03408-0.0218 0.08354-0.0483 0.11004-0.0265 0.02651-0.0481 0.08433-0.0481 0.12851 0 0.04418-0.0218 0.102-0.0483 0.12851-0.0265 0.02651-0.0483 0.08389-0.0483 0.12744 0 0.04355-0.0216 0.08746-0.0481 0.09762-0.0275 0.01053-0.0483 0.05856-0.0483 0.11199 0 0.05141-0.0216 0.11147-0.0481 0.13348-0.0265 0.022-0.0483 0.0654-0.0483 0.09656 0 0.03115-0.0215 0.09813-0.0479 0.14874-0.0264 0.05062-0.0482 0.11655-0.0483 0.14643-1.1e-4 0.02988-0.0146 0.06327-0.0323 0.0742-0.0177 0.01087-0.0321 0.04683-0.0321 0.07988 0 0.03303-0.0216 0.08177-0.0481 0.10828-0.0265 0.02651-0.0483 0.08364-0.0483 0.12691 0 0.04328-0.0216 0.09658-0.0481 0.11857-0.0265 0.022-0.0483 0.07268-0.0483 0.11253 0 0.03985-0.0216 0.09054-0.0481 0.11253-0.0265 0.022-0.0483 0.08206-0.0483 0.13348 0 0.05344-0.0205 0.10124-0.0481 0.11182-0.0275 0.01054-0.0483 0.05849-0.0483 0.11146 0 0.05112-0.0131 0.09301-0.0293 0.09301-0.0161 0-0.0392 0.05782-0.0511 0.12851-0.012 0.07069-0.0348 0.1285-0.0509 0.1285s-0.0293 0.02704-0.0293 0.06c0 0.08576-0.12208 0.22914-0.19507 0.22914-0.0438 0-0.0619-0.02232-0.0619-0.07632 0-0.04202-0.0218-0.09443-0.0483-0.11644-0.0265-0.022-0.0481-0.06815-0.0481-0.10259s-0.0218-0.08425-0.0483-0.11076c-0.0265-0.02651-0.0481-0.08912-0.0481-0.13898 0-0.05094-0.0212-0.09876-0.0483-0.10916-0.0265-0.01019-0.0486-0.05144-0.0492-0.09176-6.9e-4 -0.04032-0.0223-0.10131-0.0483-0.13561-0.0259-0.0343-0.047-0.08772-0.047-0.11874 0-0.03103-0.0362-0.1244-0.0804-0.20749-0.0442-0.08308-0.0804-0.19276-0.0804-0.2437 0-0.05268-0.0207-0.10059-0.0481-0.11111-0.0265-0.0102-0.0486-0.04945-0.0492-0.08733-6.9e-4 -0.03787-0.0223-0.09705-0.0483-0.13134-0.0259-0.0343-0.0472-0.10134-0.0472-0.1491 0-0.04775-0.0216-0.09509-0.0481-0.10525-0.0265-0.01019-0.0483-0.05519-0.0483-0.09994 0-0.04472-0.0143-0.08128-0.0318-0.08128-0.0174 0-0.0409-0.05782-0.0522-0.12851-0.0113-0.07069-0.0332-0.1285-0.0486-0.1285s-0.028-0.02625-0.028-0.05822-0.0213-0.08622-0.0472-0.12052c-0.0259-0.0343-0.0476-0.10776-0.0481-0.1633-6.8e-4 -0.05938-0.0208-0.10858-0.0492-0.11945-0.0265-0.0102-0.0483-0.05328-0.0483-0.09584 0-0.04257-0.0216-0.0955-0.0481-0.1175-0.0265-0.022-0.0483-0.08155-0.0483-0.13241 0-0.05085-0.0143-0.09247-0.0316-0.09247-0.0174 0-0.0401-0.0398-0.0508-0.08839-0.0106-0.04859-0.0384-0.13158-0.0616-0.1846-0.0232-0.05302-0.0594-0.13992-0.0806-0.19294-0.0212-0.05302-0.0587-0.13723-0.0836-0.18726-0.0249-0.05003-0.0453-0.12638-0.0453-0.16969 0-0.0433-0.0218-0.08709-0.0483-0.09727-0.0268-0.01031-0.0481-0.05807-0.0481-0.10756 0-0.04896-0.0218-0.10686-0.0483-0.12886s-0.0481-0.08008-0.0481-0.12904c0-0.04948-0.0215-0.09728-0.0483-0.10756-0.0265-0.0102-0.0486-0.05877-0.0492-0.10792-6.9e-4 -0.04915-0.0223-0.11746-0.0483-0.15176-0.0259-0.0343-0.047-0.08839-0.047-0.12034 0-0.03197-0.0126-0.05822-0.028-0.05822s-0.0373-0.05782-0.0486-0.12851c-0.0113-0.07069-0.0349-0.12851-0.0524-0.12851s-0.0318-0.04188-0.0318-0.09301c0-0.05298-0.0207-0.10092-0.0481-0.11147-0.0302-0.01161-0.0483-0.06065-0.0483-0.13188v-0.11332zm16.273 2.9191c-0.21869 3.43e-4 -0.43748 0.0122-0.4606 0.03532-0.0185 0.01848-0.11568 0.03354-0.21602 0.03354-0.12295 0-0.19544 0.01579-0.2224 0.04828-0.022 0.02651-0.0874 0.04828-0.14519 0.04828-0.0638 0-0.11232 0.01885-0.12353 0.0481-0.0102 0.02651-0.055 0.04828-0.0998 0.04828-0.0447 0-0.0813 0.01408-0.0813 0.03141 0 0.01734-0.0362 0.04057-0.0804 0.05166-0.0442 0.0111-0.0804 0.03159-0.0804 0.04544 0 0.01384-0.0389 0.03488-0.0866 0.04685s-0.1174 0.05322-0.15477 0.09176c-0.0803 0.08277-0.17055 0.14511-0.2485 0.17128-0.0309 0.01042-0.0563 0.03874-0.0563 0.06319 0 0.02443-0.0137 0.04456-0.0305 0.04456-0.0384 0-0.32286 0.28613-0.32286 0.32482 0 0.0157-0.0201 0.02857-0.0447 0.02857s-0.0537 0.03623-0.0648 0.08041-0.0345 0.08023-0.0518 0.08023c-0.0174 0-0.0314 0.02011-0.0314 0.04472 0 0.02462-0.0218 0.05319-0.0483 0.06337-0.0265 0.0102-0.0481 0.04057-0.0481 0.06762s-0.013 0.04917-0.0288 0.04917-0.0377 0.03623-0.0488 0.08041-0.0343 0.08023-0.0517 0.08023-0.0314 0.02717-0.0314 0.06035-0.0218 0.07846-0.0483 0.10046c-0.0265 0.022-0.0481 0.07476-0.0481 0.11732 0 0.04257-0.0218 0.08568-0.0483 0.09584-0.0292 0.01122-0.0481 0.05978-0.0481 0.12354 0 0.05779-0.0218 0.12319-0.0483 0.14519-0.0298 0.02472-0.0485 0.09677-0.0492 0.18868-7.2e-4 0.08178-0.0223 0.17674-0.0483 0.21104-0.0693 0.09156-0.0693 1.3902 0 1.4817 0.0268 0.0355 0.0477 0.13349 0.0483 0.22754 7.2e-4 0.11655 0.0152 0.17085 0.0492 0.18389 0.0298 0.0114 0.0483 0.0603 0.0483 0.12797 0 0.0602 0.0216 0.12745 0.0481 0.14945s0.0483 0.0587 0.0483 0.0817c0 0.0391 0.0934 0.23653 0.1285 0.27174 9e-3 9e-3 0.0445 0.0721 0.0794 0.1404 0.0348 0.0683 0.0817 0.13137 0.10437 0.14005 0.0226 9e-3 0.0412 0.0436 0.0412 0.0776s0.0216 0.0701 0.0481 0.0802c0.0265 0.0102 0.0483 0.0307 0.0483 0.0456 0 0.0375 0.47785 0.51225 0.51563 0.51225 0.0168 0 0.0305 0.0218 0.0305 0.0483 0 0.027 0.0287 0.0481 0.0653 0.0481 0.0359 0 0.0736 0.0218 0.0838 0.0483s0.0386 0.0481 0.0632 0.0481 0.0447 0.0122 0.0447 0.027 0.0796 0.0604 0.17678 0.10153c0.0972 0.0411 0.17679 0.0869 0.17679 0.10169 0 0.0148 0.0366 0.0268 0.0813 0.0268s0.0896 0.0218 0.0998 0.0483c0.0114 0.0299 0.0603 0.0483 0.12851 0.0483 0.0682 0 0.11705 0.0182 0.1285 0.0481 0.013 0.034 0.0674 0.0485 0.18389 0.0493 0.0909 6.5e-4 0.20129 0.0218 0.24548 0.047 0.1163 0.0665 0.95425 0.0656 1.0424-1e-3 0.0363-0.0274 0.13229-0.047 0.2295-0.047 0.11893 0 0.17233-0.014 0.18549-0.0483 0.0102-0.0265 0.0534-0.0481 0.096-0.0481s0.0953-0.0218 0.11732-0.0483c0.022-0.0265 0.0671-0.0483 0.10028-0.0483 0.0332 0 0.0603-0.0133 0.0603-0.0298s0.0305-0.0396 0.0678-0.0515c0.10795-0.0343 0.3983-0.29671 0.5316-0.48048 0.0619-0.0854 0.0787-0.0919 0.16063-0.0632l0.0914 0.0321 9e-3 0.34469 9e-3 0.3447h2.1826v-6.5867h-2.1848v0.25062c0 0.36986-0.10532 0.42986-0.33547 0.19116-0.0724-0.07511-0.18558-0.16527-0.25151-0.20021-0.0659-0.03495-0.11998-0.0731-0.11998-0.08485 0-0.01174-0.036-0.03044-0.0802-0.04153-0.0442-0.0111-0.0804-0.03431-0.0804-0.05166 0-0.01734-0.0366-0.03141-0.0813-0.03141s-0.0896-0.02177-0.0998-0.04828c-0.0112-0.02925-0.0599-0.0481-0.12371-0.0481-0.0578 0-0.12302-0.02177-0.14502-0.04828-0.027-0.03249-0.0994-0.04828-0.2224-0.04828-0.10033 0-0.19815-0.01569-0.21743-0.03497-0.023-0.02305-0.24174-0.03425-0.46042-0.0339zm-6.6825 0.22879v6.5875h2.2173l-8e-3 -3.2854-8e-3 -3.2853-1.1005-0.0085zm7.3186 1.6692c0.1659 4.2e-5 0.33953 0.01697 0.40433 0.05076 0.0506 0.02641 0.13273 0.0481 0.18247 0.0481 0.0497 0 0.10959 0.01925 0.13312 0.04278 0.0235 0.02353 0.0824 0.05263 0.13081 0.06479 0.0484 0.01214 0.088 0.03627 0.088 0.05361 0 0.01733 0.0218 0.0316 0.0483 0.0316s0.0481 0.02159 0.0481 0.0481 0.0168 0.04828 0.0373 0.04828c0.0646 0 0.31629 0.29984 0.31629 0.37682 0 0.04347 0.0194 0.07296 0.0481 0.07296 0.0307 0 0.0483 0.03087 0.0483 0.08484 0 0.04665 0.022 0.10098 0.049 0.1207 0.0728 0.05326 0.073 1.0779 1.8e-4 1.1312-0.0271 0.01979-0.0492 0.07231-0.0492 0.11679 0 0.04448-0.0218 0.09888-0.0483 0.12087-0.0265 0.022-0.0481 0.05261-0.0481 0.06798 0 0.0711-0.34208 0.41392-0.41304 0.41392-0.0165 0-0.0383 0.0218-0.0485 0.0483s-0.0535 0.0481-0.0964 0.0481c-0.0428 0-0.0862 0.0218-0.0964 0.0483-0.0114 0.0298-0.0604 0.0481-0.12815 0.0481-0.0603 0-0.12745 0.0218-0.14945 0.0483-0.0316 0.038-0.12299 0.0483-0.4338 0.0483s-0.40223-0.0103-0.4338-0.0483c-0.022-0.0265-0.0872-0.0481-0.14501-0.0481-0.0638 0-0.11231-0.019-0.12354-0.0483-0.0102-0.0265-0.0552-0.0483-0.0999-0.0483s-0.0813-0.0133-0.0813-0.0298-0.0264-0.0384-0.0588-0.0486c-0.0886-0.0281-0.39102-0.32642-0.39102-0.38569 0-0.0285-0.0218-0.0601-0.0483-0.0703s-0.0481-0.04414-0.0481-0.07543-0.0218-0.07492-0.0483-0.09692-0.0481-0.08603-0.0481-0.14217c0-0.05615-0.0166-0.11848-0.0367-0.13862-0.023-0.02303-0.0366-0.16926-0.0366-0.39386 0-0.2246 0.0135-0.37101 0.0366-0.39404 0.0202-0.02014 0.0367-0.08473 0.0367-0.14359 0-0.0655 0.0186-0.11417 0.0481-0.12549 0.0265-0.0102 0.0483-0.05354 0.0483-0.09637 0-0.04284 0.0216-0.08621 0.0481-0.09638 0.0265-0.01019 0.0483-0.03709 0.0483-0.05981 0-0.02273 0.0216-0.04964 0.0481-0.05982 0.0265-0.0102 0.0483-0.03776 0.0483-0.06124 0-0.02347 0.0439-0.07823 0.0975-0.12158 0.0536-0.04334 0.11748-0.09682 0.14217-0.11892 0.0247-0.02208 0.0589-0.04011 0.076-0.04011 0.017 0 0.0394-0.02177 0.0495-0.04828 0.0102-0.02651 0.0535-0.0481 0.0964-0.0481 0.0428 0 0.0862-0.02177 0.0964-0.04828 0.0117-0.0305 0.0609-0.0481 0.13419-0.0481 0.0637 0 0.13749-0.02177 0.164-0.04828 0.0338-0.03377 0.19193-0.05063 0.35783-0.05058z"/></g></g></svg>
