<svg width="100%" height="auto" version="1.1" viewBox="0 0 57.020767 47.482189" xmlns="http://www.w3.org/2000/svg">
<g transform="translate(-8.1058 -10.166)">
<path d="m31.506 27.671h32.234m-16.117-16.304a16.304 16.304 0 0 0 -0.37305 0.01367 9.2698 18.54 0 0 0 -4.8867 16.289 9.2698 18.54 0 0 0 4.8809 16.285 16.304 16.304 0 0 0 0.37891 0.01953 16.304 16.304 0 0 0 0.37305 -0.01367 9.2698 18.54 0 0 0 4.8867 -16.291 9.2698 18.54 0 0 0 -4.8789 -16.283 16.304 16.304 0 0 0 -0.38085 -0.01953zm16.304 16.304a16.304 16.304 0 0 1 -16.304 16.304 16.304 16.304 0 0 1 -16.304 -16.304 16.304 16.304 0 0 1 16.304 -16.304 16.304 16.304 0 0 1 16.304 16.304zm-16.304-16.305a16.304 16.304 0 0 0 -12.148 5.457 13.414 6.707 0 0 0 12.148 3.8828 13.414 6.707 0 0 0 12.148 -3.8809 16.304 16.304 0 0 0 -12.148 -5.459zm0 23.271a13.414 6.707 0 0 0 -12.146 3.8789 16.304 16.304 0 0 0 12.146 5.459 16.304 16.304 0 0 0 12.148 -5.4551 13.414 6.707 0 0 0 -12.148 -3.8828z" fill="none" stroke="#ccc" stroke-width="2.4"/>
<rect x="20.279" y="26.544" width="25.421" height="23.393" fill="#fff" stroke="#fff" stroke-linecap="round" stroke-linejoin="round" stroke-width="4"/>
<path d="m23.241 50.724-0.92578 5.7246h9.5332l-0.92773-5.7246h-5.5606zm-13.935-23.338h35.552v23.338h-35.552z" fill-opacity="0" stroke="#ccc" stroke-linejoin="round" stroke-width="2.4"/>
</g>
</svg>
