<svg width="100%" height="auto" version="1.1" viewBox="0 0 56.837727 58.239819" xmlns="http://www.w3.org/2000/svg"><g transform="translate(22.371 -258.81)"><g transform="matrix(.68112 0 0 .68112 269.32 -647.34)"><path d="m-412.44 1336.2v6.612c0 2.7985 2.2529 5.0514 5.0514 5.0514h21.515c2.7985 0 5.0514-2.2529 5.0514-5.0514v-6.612h-10.983a4.8643 4.8643 0 0 1 0.0388 0.5612 4.8643 4.8643 0 0 1 -4.8643 4.8643 4.8643 4.8643 0 0 1 -4.8643 -4.8643 4.8643 4.8643 0 0 1 0.0357 -0.5612zm29.467 27.876c-2.7984 0-5.0514 2.2529-5.0514 5.0514v40.224c0 2.7985 2.2529 5.0514 5.0514 5.0514h31.618c2.7985 0 5.0514-2.2529 5.0514-5.0514v-40.224c0-2.7985-2.2529-5.0514-5.0514-5.0514zm2.7125 7.6708h26.193v7.2963h-26.193zm-11.506-34.986a4.8643 4.8643 0 0 1 -4.8643 4.8643 4.8643 4.8643 0 0 1 -4.8643 -4.8643 4.8643 4.8643 0 0 1 4.8643 -4.8643 4.8643 4.8643 0 0 1 4.8643 4.8643zm-27.869-0.5612c-3.9426 0-7.1163 3.1738-7.1163 7.1164v58.357c3e-5 3.9427 3.1737 7.1169 7.1163 7.1169h31.611v-39.663c-2e-5 -2.7985 2.2529-5.0514 5.0514-5.0514h16.464v-20.76c0-3.9426-3.1737-7.1164-7.1164-7.1164h-18.179a4.8643 4.8643 0 0 1 0.0388 0.5613 4.8643 4.8643 0 0 1 -4.8643 4.8643 4.8643 4.8643 0 0 1 -4.8643 -4.8643 4.8643 4.8643 0 0 1 0.0357 -0.5613z" fill="none" stroke="#4d4d4d" stroke-linecap="round" stroke-linejoin="round" stroke-width="3"/><path transform="scale(.26458)" d="m-1548.3 5133.6v47.662h-16.662v-26.162h-11.34v26.162h-14.455v11.338h96.25v-11.338h-14.455v-33.912h-11.338v33.912h-16.662v-47.662zm6.6758 76.971a49.134 49.134 0 0 0 -45.392 30.33 49.134 49.134 0 0 0 10.65 53.547l8.0196-8.0176a37.795 37.795 0 0 1 -8.1934 -41.189 37.795 37.795 0 0 1 34.916 -23.332 37.795 37.795 0 0 1 34.92 23.332 37.795 37.795 0 0 1 -8.1934 41.189l8.0176 8.0156a49.134 49.134 0 0 0 10.65 -53.543 49.134 49.134 0 0 0 -45.395 -30.332zm101.58 18.643v24.545h28.562v-24.545zm37.869 0v24.545h28.562v-24.545zm37.869 0v24.545h28.562v-24.545zm-75.738 32.818v24.547h28.562v-24.547zm37.869 0v24.547h28.562v-24.547zm37.869 0v24.547h28.562v-24.547zm-75.738 32.82v24.545h28.562v-24.545zm37.869 0v24.545h28.562v-24.545zm37.869 0v24.545h28.562v-24.545z" fill="#4d4d4d"/></g></g></svg>
