<svg width="100%" height="auto" version="1.1" viewBox="0 0 755.90552 403.22348" xmlns="http://www.w3.org/2000/svg"><g transform="translate(277.95 -120.81)"><g transform="matrix(7.1312 0 0 7.1312 13144 -5022.4)"><g fill="#6cdc00" aria-label="USE SOLAR"><path transform="matrix(.14023 0 0 .14023 -1882.2 721.23)" d="m436.03 0c-8.7599 0-21.102 1.8574-33.312 10.352-5.3084 3.7161-22.031 16.059-22.031 42.338 0 27.341 19.908 54.018 56.141 54.018 28.137 0 54.549-20.173 54.549-55.211 0-30.659-26.944-51.496-55.346-51.496zm-298.49 0.66406c-19.908 0-34.375 13.139-34.375 33.578 0 21.633 13.802 24.022 27.074 28.27 5.7064 1.7254 15.795 3.9817 15.795 11.414 0 6.2379-5.3101 10.086-12.742 10.086-7.2995 0-14.598-3.0519-22.959-10.352l-11.15 20.971c10.22 7.167 22.696 11.414 35.039 11.414 10.22 0 20.174-2.655 28.535-9.4238 6.6363-5.4415 10.352-14.6 10.352-26.943 0-12.21-5.9716-19.243-15.527-23.889-3.982-1.9908-8.628-3.3193-13.672-4.7793-9.6884-2.7871-13.67-5.7062-13.67-10.219 0-4.9107 5.3087-8.3613 11.148-8.3613 6.2376 0 12.343 2.5224 17.254 6.6367l10.354-20.174c-9.4231-5.1761-21.501-8.2285-31.455-8.2285zm200.38 0c-19.908 0-34.375 13.139-34.375 33.578 0 21.633 13.804 24.022 27.076 28.27 5.7071 1.7254 15.793 3.9817 15.793 11.414 0 6.2379-5.3081 10.086-12.74 10.086-7.3002 0-14.6-3.0519-22.961-10.352l-11.148 20.971c10.219 7.167 22.694 11.414 35.037 11.414 10.219 0 20.174-2.655 28.535-9.4238 6.6363-5.4415 10.352-14.6 10.352-26.943 0-12.21-5.9708-19.243-15.527-23.889-3.9813-1.9908-8.6268-3.3193-13.67-4.7793-9.6884-2.7871-13.67-5.7062-13.67-10.219 0-4.9107 5.3087-8.3613 11.148-8.3613 6.2376 0 12.341 2.5224 17.252 6.6367l10.354-20.174c-9.4231-5.1761-21.501-8.2285-31.455-8.2285zm-337.92 2.6543v57.467c0 16.856 2.521 26.279 10.484 34.109 9.1579 8.8923 22.697 11.15 33.182 11.15 19.775 0 33.445-7.6995 39.285-19.379 3.3181-6.636 4.3789-14.334 4.3789-25.881v-57.467h-26.014v53.752c0 13.139-1.7243 26.146-17.65 26.146-16.192 0-17.652-13.405-17.652-26.279v-53.619h-26.014zm185.36 0v100.07h56.938v-22.031h-30.926v-17.254h29.332v-22.031h-29.332v-16.723h30.926v-22.031h-56.938zm318.06 0v100.07h57.203 26.961l6.9024-17.385h35.834l6.5039 17.385h27.738l-37.693-100.07h-28.402l-37.844 98.395v-20.355h-31.189v-78.039h-26.014zm169.27 0v100.07h26.014v-38.488h0.26368l24.553 38.488h32.383l-31.455-41.01c13.538-2.3889 21.9-13.803 21.9-28.27 0-20.704-14.334-30.791-34.375-30.791h-39.283zm26.014 19.908h2.2559c12.874 0 18.314 3.9805 18.314 12.475 0 8.4942-5.5732 12.477-18.314 12.477h-2.2559v-24.951zm-262.8 1.9902c15.263 0 28.402 12.344 28.402 26.412 0 16.723-12.343 29.861-28.27 29.861-15.662 0-28.27-12.74-28.27-29.861 0-14.334 13.537-26.412 28.137-26.412zm176.5 9.0254h0.26367l10.619 31.854h-21.635l10.752-31.854z" fill="#6cdc00" stroke-width="3.318"/></g><path transform="matrix(.14023 0 0 .14023 -1882.2 721.23)" d="m2.2695 151.56v47.025h15.012v-14.65h53.174v-17.725h-53.174v-14.65h-15.012zm0 52.793v38.795h68.186v-38.795h-15.012v21.07h-11.756v-19.984h-15.012v19.984h-11.395v-21.07h-15.012zm30.113 46.916v35.178h13.928v-14.469c7.3252 0.72346 11.846 5.9674 11.846 14.287 0 12.751-12.299 17.996-21.342 17.996-9.2242 0-21.523-5.2451-21.523-17.725 0-6.7824 3.9785-12.118 10.852-14.74l-7.0527-16.82c-12.751 5.878-19.08 16.729-19.08 30.746 0 21.794 14.288 36.986 36.715 36.986 21.704 0 35.99-15.1 35.99-36.352 0-16.187-8.229-27.311-21.342-32.375-4.2502-1.6278-10.58-2.6225-18.99-2.7129z" fill="#6cdc00"/><path transform="matrix(.14023 0 0 .14023 -1882.2 721.23)" d="m411.81 151.56c-14.049 0-33.846 2.9817-53.43 16.605-8.5154 5.9604-35.338 25.756-35.338 67.904 0 43.851 31.931 86.639 90.045 86.639 45.129 0 87.49-32.355 87.49-88.553 0-49.173-43.213-82.596-88.768-82.596zm-272.14 5.3223l-27.246 160.51h41.51l13.41-92.387h0.42774l36.826 92.387h16.604l38.531-92.387h0.42773l11.707 92.387h41.723l-24.268-160.51h-41.51l-34.484 85.787-32.57-85.787h-41.088zm380.22 0v160.51h41.723v-61.732h0.42774l39.381 61.732h51.939l-50.449-65.777c21.713-3.8316 35.123-22.139 35.123-45.342 0-33.208-22.989-49.387-55.133-49.387h-63.012zm144.69 0v160.51h91.32v-35.338h-49.598v-27.672h47.045v-35.338h-47.045v-26.82h49.598v-35.338h-91.32zm-102.96 31.932h3.6191c20.648 0 29.375 6.3861 29.375 20.01 0 13.624-8.9392 20.01-29.375 20.01h-3.6191v-40.02zm-150.01 3.1934c24.48 0 45.553 19.797 45.553 42.361 0 26.822-19.797 47.895-45.342 47.895-25.119 0-45.34-20.434-45.34-47.895 0-22.99 21.713-42.361 45.129-42.361z" fill="#fff"/><path d="m-1882.2 772.77h106v5h-106z" fill="#6cdc00"/></g></g></svg>
